<svg width="91" height="91" viewBox="0 0 91 91" fill="none" xmlns="http://www.w3.org/2000/svg">
<path d="M75.8333 8C77.7465 7.99939 79.5892 8.72196 80.9921 10.0228C82.3949 11.3237 83.2542 13.1068 83.3977 15.0146L83.4167 15.5833V61.0833C83.4173 62.9965 82.6947 64.8392 81.3938 66.2421C80.0929 67.6449 78.3099 68.5042 76.4021 68.6477L75.8333 68.6667H15.1667C13.2535 68.6673 11.4108 67.9447 10.0079 66.6438C8.60508 65.3429 7.74578 63.5599 7.60229 61.6521L7.58333 61.0833V57.2917H15.1667V61.0833H75.8333V20.9447L49.5192 47.2589C48.5239 48.2541 47.1949 48.8448 45.7893 48.917C44.3837 48.9891 43.0012 48.5375 41.9093 47.6495L41.477 47.2589L15.1667 20.9447V23.1667H7.58333V15.5833C7.58273 13.6701 8.30529 11.8274 9.60618 10.4246C10.9071 9.02174 12.6901 8.16245 14.5979 8.01896L15.1667 8H75.8333ZM22.75 42.125C23.7556 42.125 24.72 42.5245 25.4311 43.2356C26.1422 43.9466 26.5417 44.9111 26.5417 45.9167C26.5417 46.9223 26.1422 47.8867 25.4311 48.5978C24.72 49.3089 23.7556 49.7083 22.75 49.7083H3.79167C2.78605 49.7083 1.82163 49.3089 1.11055 48.5978C0.399478 47.8867 0 46.9223 0 45.9167C0 44.9111 0.399478 43.9466 1.11055 43.2356C1.82163 42.5245 2.78605 42.125 3.79167 42.125H22.75ZM70.4719 15.5833H20.5281L45.5 40.5553L70.4719 15.5833ZM18.9583 30.75C19.9248 30.7511 20.8543 31.1211 21.557 31.7845C22.2598 32.448 22.6826 33.3547 22.7393 34.3195C22.7959 35.2842 22.482 36.2342 21.8617 36.9753C21.2415 37.7164 20.3616 38.1926 19.402 38.3068L18.9583 38.3333H7.58333C6.61692 38.3323 5.68738 37.9622 4.98465 37.2988C4.28191 36.6354 3.85903 35.7286 3.80239 34.7639C3.74575 33.7991 4.05964 32.8491 4.67992 32.1081C5.3002 31.367 6.18005 30.8907 7.13971 30.7765L7.58333 30.75H18.9583Z" fill="black"/>
</svg>
