<svg width="36" height="36" viewBox="0 0 36 36" fill="none" xmlns="http://www.w3.org/2000/svg">
<g clip-path="url(#clip0_73_340)">
<path d="M23.4 18.0002C23.4 19.4324 22.831 20.8059 21.8183 21.8186C20.8057 22.8313 19.4321 23.4002 18 23.4002C16.5678 23.4002 15.1943 22.8313 14.1816 21.8186C13.1689 20.8059 12.6 19.4324 12.6 18.0002C12.6012 17.6918 12.6306 17.3918 12.6882 17.1002H10.8V24.2948C10.8 24.7952 11.205 25.2002 11.7054 25.2002H24.2964C24.5362 25.1997 24.766 25.1041 24.9354 24.9344C25.1048 24.7647 25.2 24.5346 25.2 24.2948V17.1002H23.3118C23.3694 17.3918 23.3988 17.6918 23.4 18.0002ZM18 21.6002C18.4728 21.6001 18.9411 21.5068 19.3779 21.3258C19.8147 21.1447 20.2116 20.8794 20.5459 20.5449C20.8802 20.2104 21.1454 19.8134 21.3262 19.3765C21.5071 18.9396 21.6001 18.4713 21.6 17.9984C21.5999 17.5255 21.5066 17.0573 21.3255 16.6205C21.1445 16.1836 20.8791 15.7867 20.5447 15.4525C20.2102 15.1182 19.8132 14.853 19.3762 14.6722C18.9393 14.4913 18.471 14.3983 17.9982 14.3984C17.0432 14.3987 16.1273 14.7783 15.4522 15.4537C14.7771 16.1292 14.3979 17.0452 14.3982 18.0002C14.3984 18.9552 14.778 19.871 15.4535 20.5462C16.129 21.2213 17.045 21.6005 18 21.6002ZM22.32 14.2202H24.4782C24.5492 14.2205 24.6196 14.2067 24.6854 14.1796C24.7511 14.1526 24.8108 14.1129 24.8612 14.0627C24.9115 14.0125 24.9514 13.9529 24.9787 13.8873C25.0059 13.8216 25.02 13.7513 25.02 13.6802V11.522C25.0202 11.4508 25.0064 11.3802 24.9792 11.3144C24.9521 11.2486 24.9122 11.1887 24.8618 11.1384C24.8115 11.088 24.7516 11.0481 24.6858 11.021C24.6199 10.9938 24.5494 10.98 24.4782 10.9802H22.32C22.2488 10.98 22.1782 10.9938 22.1124 11.021C22.0465 11.0481 21.9867 11.088 21.9363 11.1384C21.886 11.1887 21.8461 11.2486 21.8189 11.3144C21.7918 11.3802 21.7779 11.4508 21.7782 11.522V13.6802C21.78 13.9772 22.023 14.2202 22.32 14.2202ZM18 0.720215C13.417 0.720215 9.02179 2.54078 5.78117 5.78141C2.54054 9.02204 0.719971 13.4173 0.719971 18.0002C0.719971 22.5832 2.54054 26.9784 5.78117 30.219C9.02179 33.4596 13.417 35.2802 18 35.2802C20.2692 35.2802 22.5162 34.8333 24.6127 33.9649C26.7092 33.0965 28.6142 31.8236 30.2188 30.219C31.8234 28.6144 33.0962 26.7095 33.9646 24.613C34.833 22.5165 35.28 20.2695 35.28 18.0002C35.28 15.731 34.833 13.484 33.9646 11.3874C33.0962 9.29094 31.8234 7.38601 30.2188 5.78141C28.6142 4.17681 26.7092 2.90398 24.6127 2.03558C22.5162 1.16718 20.2692 0.720215 18 0.720215ZM27 25.0004C27 26.1002 26.1 27.0002 25.0002 27.0002H10.9998C9.89997 27.0002 8.99997 26.1002 8.99997 25.0004V11C8.99997 9.90021 9.89997 9.00021 10.9998 9.00021H25.0002C26.1 9.00021 27 9.90021 27 11V25.0004Z" fill="#F24822"/>
</g>
<defs>
<clipPath id="clip0_73_340">
<rect width="36" height="36" fill="white"/>
</clipPath>
</defs>
</svg>
