<svg width="41" height="41" viewBox="0 0 41 41" fill="none" xmlns="http://www.w3.org/2000/svg">
<path d="M15.4434 36.7973C17.0834 37.2928 18.7405 37.5832 20.5001 37.5832C25.0309 37.5832 29.3761 35.7833 32.5798 32.5796C35.7836 29.3758 37.5834 25.0306 37.5834 20.4998C37.5834 18.2564 37.1415 16.035 36.283 13.9623C35.4245 11.8897 34.1662 10.0064 32.5798 8.4201C30.9935 6.83376 29.1102 5.57541 27.0376 4.7169C24.9649 3.85838 22.7435 3.4165 20.5001 3.4165C18.2567 3.4165 16.0352 3.85838 13.9626 4.7169C11.8899 5.57541 10.0067 6.83376 8.42034 8.4201C5.21659 11.6238 3.41675 15.9691 3.41675 20.4998C3.41675 27.7603 7.978 33.9957 14.4184 36.4557C14.2647 35.1232 14.1109 32.9194 14.4184 31.399L16.383 22.9598C16.383 22.9598 15.8876 21.969 15.8876 20.3973C15.8876 18.0398 17.3567 16.2803 19.0309 16.2803C20.5001 16.2803 21.1834 17.3565 21.1834 18.7403C21.1834 20.2094 20.2097 22.3107 19.7142 24.3265C19.4238 26.0007 20.6026 27.4698 22.3109 27.4698C25.3517 27.4698 27.7092 24.224 27.7092 19.6457C27.7092 15.5457 24.7709 12.744 20.5513 12.744C15.7338 12.744 12.898 16.3315 12.898 20.1069C12.898 21.5761 13.3763 23.0623 14.1622 24.0361C14.3159 24.1386 14.3159 24.2753 14.2647 24.5315L13.7692 26.3936C13.7692 26.684 13.5813 26.7865 13.2909 26.5815C11.1042 25.6248 9.84008 22.5157 9.84008 20.0044C9.84008 14.6061 13.6667 9.70317 21.0467 9.70317C26.9234 9.70317 31.5017 13.9228 31.5017 19.5261C31.5017 25.4028 27.863 30.1178 22.6526 30.1178C20.9955 30.1178 19.3726 29.2294 18.7917 28.1873L17.6472 32.2361C17.2542 33.7053 16.178 35.6698 15.4434 36.8486V36.7973Z" fill="#F24822"/>
</svg>
