<svg width="41" height="41" viewBox="0 0 41 41" fill="none" xmlns="http://www.w3.org/2000/svg">
<path d="M30.5792 18.6207C25.1126 15.3748 15.973 15.0332 10.7626 16.6561C9.90842 16.9123 9.05425 16.3998 8.798 15.6311C8.54175 14.7769 9.05425 13.9228 9.823 13.6665C15.8876 11.8728 25.8813 12.2144 32.2022 15.9728C32.9709 16.3998 33.2272 17.4248 32.8001 18.1936C32.373 18.7915 31.348 19.0478 30.5792 18.6207ZM30.4084 23.404C29.9813 24.0019 29.2126 24.2582 28.6147 23.8311C24.0022 21.0123 16.998 20.1582 11.6167 21.8665C10.9334 22.0373 10.1647 21.6957 9.99383 21.0123C9.823 20.329 10.1647 19.5603 10.848 19.3894C17.0834 17.5103 24.7709 18.4498 30.0667 21.6957C30.5792 21.9519 30.8355 22.8061 30.4084 23.404ZM28.3584 28.1019C28.0167 28.6144 27.4188 28.7853 26.9063 28.4436C22.8917 25.9665 17.8522 25.454 11.873 26.8207C11.2751 26.9915 10.7626 26.5644 10.5917 26.0519C10.4209 25.454 10.848 24.9415 11.3605 24.7707C17.8522 23.3186 23.4897 23.9165 27.9313 26.6498C28.5292 26.9061 28.6147 27.5894 28.3584 28.1019ZM20.5001 3.4165C18.2567 3.4165 16.0352 3.85838 13.9626 4.7169C11.8899 5.57541 10.0067 6.83376 8.42034 8.4201C5.21659 11.6238 3.41675 15.9691 3.41675 20.4998C3.41675 25.0306 5.21659 29.3758 8.42034 32.5796C10.0067 34.1659 11.8899 35.4243 13.9626 36.2828C16.0352 37.1413 18.2567 37.5832 20.5001 37.5832C25.0309 37.5832 29.3761 35.7833 32.5798 32.5796C35.7836 29.3758 37.5834 25.0306 37.5834 20.4998C37.5834 18.2564 37.1415 16.035 36.283 13.9623C35.4245 11.8897 34.1662 10.0064 32.5798 8.4201C30.9935 6.83376 29.1102 5.57541 27.0376 4.7169C24.9649 3.85838 22.7435 3.4165 20.5001 3.4165Z" fill="#F24822"/>
</svg>
