<svg width="41" height="41" viewBox="0 0 41 41" fill="none" xmlns="http://www.w3.org/2000/svg">
<g clip-path="url(#clip0_73_346)">
<path d="M23.7862 20.1575L19.1819 18.0091C18.7801 17.8225 18.4501 18.0316 18.4501 18.4765V22.5232C18.4501 22.968 18.7801 23.1771 19.1819 22.9906L23.7842 20.8422C24.188 20.6536 24.188 20.3461 23.7862 20.1575ZM20.5001 0.819824C9.63097 0.819824 0.820068 9.63072 0.820068 20.4998C0.820068 31.3689 9.63097 40.1798 20.5001 40.1798C31.3692 40.1798 40.1801 31.3689 40.1801 20.4998C40.1801 9.63072 31.3692 0.819824 20.5001 0.819824ZM20.5001 28.4948C10.4264 28.4948 10.2501 27.5867 10.2501 20.4998C10.2501 13.413 10.4264 12.5048 20.5001 12.5048C30.5738 12.5048 30.7501 13.413 30.7501 20.4998C30.7501 27.5867 30.5738 28.4948 20.5001 28.4948Z" fill="#F24822"/>
</g>
<defs>
<clipPath id="clip0_73_346">
<rect width="41" height="41" fill="white"/>
</clipPath>
</defs>
</svg>
