<svg width="25" height="25" viewBox="0 0 25 25" fill="none" xmlns="http://www.w3.org/2000/svg">
<g clip-path="url(#clip0_53_55)">
<path d="M25 12.4875C25 5.59375 19.4 0 12.5 0C5.6 0 0 5.59375 0 12.4875C0 16.2844 1.725 19.7062 4.425 22.0031C4.45 22.0281 4.475 22.0281 4.475 22.0531C4.7 22.2281 4.925 22.4031 5.175 22.5781C5.3 22.6531 5.4 22.7516 5.525 22.8516C7.59157 24.2504 10.0295 24.9986 12.525 25C15.0205 24.9986 17.4584 24.2504 19.525 22.8516C19.65 22.7766 19.75 22.6781 19.875 22.6016C20.1 22.4281 20.35 22.2531 20.575 22.0781C20.6 22.0531 20.625 22.0531 20.625 22.0281C23.275 19.7047 25 16.2844 25 12.4875ZM12.5 23.4266C10.15 23.4266 8 22.6766 6.225 21.4281C6.25 21.2281 6.3 21.0297 6.35 20.8297C6.49946 20.2878 6.71791 19.7674 7 19.2812C7.275 18.8062 7.6 18.3813 8 18.0063C8.375 17.6313 8.825 17.2828 9.275 17.0078C9.75 16.7328 10.25 16.5328 10.8 16.3828C11.3545 16.2343 11.926 16.1592 12.5 16.1594C14.2043 16.1465 15.8461 16.8003 17.075 17.9813C17.65 18.5563 18.1 19.2307 18.425 20.0047C18.6 20.4547 18.725 20.9292 18.8 21.4281C16.955 22.7252 14.7554 23.423 12.5 23.4266ZM8.675 11.8641C8.45517 11.3596 8.34442 10.8143 8.35 10.2641C8.35 9.71562 8.45 9.16562 8.675 8.66562C8.9 8.16562 9.2 7.71719 9.575 7.34219C9.95 6.96719 10.4 6.66875 10.9 6.44375C11.4 6.21875 11.95 6.11875 12.5 6.11875C13.075 6.11875 13.6 6.21875 14.1 6.44375C14.6 6.66875 15.05 6.96875 15.425 7.34219C15.8 7.71719 16.1 8.16719 16.325 8.66562C16.55 9.16562 16.65 9.71562 16.65 10.2641C16.65 10.8391 16.55 11.3641 16.325 11.8625C16.1091 12.3558 15.804 12.805 15.425 13.1875C15.0424 13.5659 14.5932 13.8705 14.1 14.0859C13.0668 14.5096 11.9082 14.5096 10.875 14.0859C10.3818 13.8705 9.93265 13.5659 9.55 13.1875C9.1707 12.8104 8.87288 12.361 8.675 11.8641ZM20.275 20.1547C20.275 20.1047 20.25 20.0797 20.25 20.0297C20.0046 19.2473 19.6421 18.5067 19.175 17.8328C18.7075 17.154 18.1334 16.5552 17.475 16.0594C16.972 15.6808 16.4266 15.362 15.85 15.1094C16.1111 14.9347 16.354 14.7342 16.575 14.5109C16.9477 14.143 17.275 13.7317 17.55 13.2859C18.1056 12.3771 18.3917 11.3292 18.375 10.2641C18.3832 9.47576 18.23 8.69412 17.925 7.96719C17.6242 7.26664 17.1913 6.63058 16.65 6.09375C16.1081 5.56414 15.4723 5.14023 14.775 4.84375C14.047 4.53883 13.2642 4.38622 12.475 4.39531C11.6857 4.38671 10.9029 4.53986 10.175 4.84531C9.47007 5.13817 8.83212 5.57144 8.3 6.11875C7.76763 6.65776 7.34333 7.29368 7.05 7.99219C6.74497 8.71912 6.59183 9.50076 6.6 10.2891C6.6 10.8391 6.675 11.3635 6.825 11.8625C6.975 12.3875 7.175 12.8625 7.45 13.3109C7.7 13.7609 8.05 14.1609 8.425 14.5359C8.65 14.7609 8.9 14.9604 9.175 15.1344C8.59578 15.3922 8.0501 15.7196 7.55 16.1094C6.9 16.6094 6.325 17.2078 5.85 17.8578C5.37855 18.5291 5.01577 19.2705 4.775 20.0547C4.75 20.1047 4.75 20.1547 4.75 20.1797C2.775 18.1812 1.55 15.4844 1.55 12.4875C1.55 6.46875 6.475 1.54844 12.5 1.54844C18.525 1.54844 23.45 6.46875 23.45 12.4875C23.4467 15.3624 22.3052 18.1191 20.275 20.1547Z" fill="white"/>
</g>
<defs>
<clipPath id="clip0_53_55">
<rect width="25" height="25" fill="white"/>
</clipPath>
</defs>
</svg>
