<svg width="32" height="32" viewBox="0 0 32 32" fill="none" xmlns="http://www.w3.org/2000/svg">
<path d="M26.9587 7.62812L31.5544 4.66437C31.6637 4.59154 31.7575 4.49789 31.8306 4.38877C31.9037 4.27965 31.9546 4.1572 31.9804 4.02841C32.0062 3.89963 32.0063 3.76703 31.9808 3.63818C31.9553 3.50934 31.9047 3.38678 31.8319 3.2775L31.2775 2.44562C31.2047 2.33633 31.111 2.24245 31.0019 2.16935C30.8928 2.09625 30.7703 2.04537 30.6415 2.0196C30.5128 1.99383 30.3802 1.99368 30.2513 2.01916C30.1225 2.04465 29.9999 2.09526 29.8906 2.16812L23.0119 6.60562C19.9019 6.05687 16.9513 6 16 6C13.7219 6 0 6.28437 0 13.0094V23.0237C0 24.9156 1.71875 26.6287 4.5 27.89V21.5212C4.5 21.1234 4.65804 20.7419 4.93934 20.4606C5.22064 20.1793 5.60218 20.0212 6 20.0212C6.39782 20.0212 6.77936 20.1793 7.06066 20.4606C7.34196 20.7419 7.5 21.1234 7.5 21.5212V28.9544C9.56563 29.5237 11.9419 29.8956 14.5 30V23.5244C14.5 23.1265 14.658 22.745 14.9393 22.4637C15.2206 22.1824 15.6022 22.0244 16 22.0244C16.3978 22.0244 16.7794 22.1824 17.0607 22.4637C17.342 22.745 17.5 23.1265 17.5 23.5244V30C20.0581 29.8956 22.4344 29.5237 24.5 28.9544V21.5212C24.5 21.1234 24.658 20.7419 24.9393 20.4606C25.2206 20.1793 25.6022 20.0212 26 20.0212C26.3978 20.0212 26.7794 20.1793 27.0607 20.4606C27.342 20.7419 27.5 21.1234 27.5 21.5212V27.89C30.2812 26.6287 32 24.9156 32 23.0237V13.0094C32 10.3019 29.765 8.64937 26.9587 7.62812ZM16 17.015C8.82 17.015 3 15.2219 3 13.0094C3 10.7969 8.82 9.00437 16 9.00437C17.0719 9.00437 18.1081 9.04875 19.105 9.12375L14.5544 12.0612C14.4451 12.1341 14.3513 12.2278 14.2783 12.337C14.2052 12.4461 14.1544 12.5686 14.1287 12.6973C14.103 12.8261 14.1029 12.9587 14.1284 13.0875C14.154 13.2163 14.2046 13.3389 14.2775 13.4481L14.8319 14.28C14.9047 14.3893 14.9984 14.4832 15.1075 14.5563C15.2166 14.6294 15.339 14.6803 15.4678 14.706C15.5966 14.7318 15.7292 14.7319 15.8581 14.7065C15.9869 14.681 16.1095 14.6304 16.2188 14.5575L23.6338 9.775C26.8806 10.5 29 11.6775 29 13.0094C29 15.2219 23.1794 17.015 16 17.015Z" fill="white"/>
</svg>
