<svg width="32" height="32" viewBox="0 0 32 32" fill="none" xmlns="http://www.w3.org/2000/svg">
<g clip-path="url(#clip0_58_83)">
<path d="M29.0625 0.437497C28.475 -0.150003 27.525 -0.150003 26.9437 0.437497L23.9375 3.4375C23.7875 3.5875 23.6687 3.76875 23.5937 3.96875L22.6312 6.53125L17.7875 11.3812C14.9687 9.54375 11.5812 9.49375 9.59998 11.4812C8.91248 12.1687 8.47498 13.0187 8.26248 13.9562C8.03123 14.9937 7.06873 15.875 6.00623 15.9312C4.40623 16.0125 2.92498 16.6 1.79998 17.7187C-1.00002 20.5187 -0.47502 25.5812 2.96873 29.025C6.41248 32.4687 11.475 33 14.275 30.2C15.3937 29.0812 15.9875 27.5937 16.0625 25.9937C16.1187 24.9312 17 23.975 18.0375 23.7375C18.975 23.525 19.825 23.0812 20.5125 22.4C22.5 20.4125 22.45 17.0312 20.6125 14.2125L25.4625 9.3625L28.025 8.4C28.225 8.325 28.4062 8.20625 28.5562 8.05625L31.5562 5.05625C32.1437 4.46875 32.1437 3.51875 31.5562 2.9375L29.0625 0.437497ZM13 16C13.7956 16 14.5587 16.3161 15.1213 16.8787C15.6839 17.4413 16 18.2043 16 19C16 19.7956 15.6839 20.5587 15.1213 21.1213C14.5587 21.6839 13.7956 22 13 22C12.2043 22 11.4413 21.6839 10.8787 21.1213C10.3161 20.5587 9.99998 19.7956 9.99998 19C9.99998 18.2043 10.3161 17.4413 10.8787 16.8787C11.4413 16.3161 12.2043 16 13 16Z" fill="white"/>
</g>
<defs>
<clipPath id="clip0_58_83">
<rect width="32" height="32" fill="white"/>
</clipPath>
</defs>
</svg>
