<svg width="32" height="32" viewBox="0 0 32 32" fill="none" xmlns="http://www.w3.org/2000/svg">
<path fill-rule="evenodd" clip-rule="evenodd" d="M4.61875 4.61866C2.66675 6.57333 2.66675 9.71466 2.66675 16C2.66675 22.2853 2.66675 25.428 4.61875 27.38C6.57341 29.3333 9.71475 29.3333 16.0001 29.3333C22.2854 29.3333 25.4281 29.3333 27.3801 27.38C29.3334 25.4293 29.3334 22.2853 29.3334 16C29.3334 9.71466 29.3334 6.572 27.3801 4.61866C25.4294 2.66666 22.2854 2.66666 16.0001 2.66666C9.71475 2.66666 6.57208 2.66666 4.61875 4.61866ZM20.7067 11.2933C20.894 11.4808 20.9992 11.735 20.9992 12C20.9992 12.265 20.894 12.5192 20.7067 12.7067L12.7067 20.7067C12.5172 20.8833 12.2665 20.9795 12.0074 20.9749C11.7483 20.9703 11.5011 20.8654 11.3179 20.6822C11.1347 20.4989 11.0298 20.2518 11.0252 19.9927C11.0206 19.7336 11.1168 19.4829 11.2934 19.2933L19.2934 11.2933C19.4809 11.1061 19.7351 11.0009 20.0001 11.0009C20.2651 11.0009 20.5192 11.1061 20.7067 11.2933ZM14.0001 12.6667C14.0001 13.0203 13.8596 13.3594 13.6096 13.6095C13.3595 13.8595 13.0204 14 12.6667 14C12.3131 14 11.974 13.8595 11.7239 13.6095C11.4739 13.3594 11.3334 13.0203 11.3334 12.6667C11.3334 12.313 11.4739 11.9739 11.7239 11.7239C11.974 11.4738 12.3131 11.3333 12.6667 11.3333C13.0204 11.3333 13.3595 11.4738 13.6096 11.7239C13.8596 11.9739 14.0001 12.313 14.0001 12.6667ZM19.3334 20.6667C19.687 20.6667 20.0262 20.5262 20.2762 20.2761C20.5263 20.0261 20.6667 19.687 20.6667 19.3333C20.6667 18.9797 20.5263 18.6406 20.2762 18.3905C20.0262 18.1405 19.687 18 19.3334 18C18.9798 18 18.6407 18.1405 18.3906 18.3905C18.1406 18.6406 18.0001 18.9797 18.0001 19.3333C18.0001 19.687 18.1406 20.0261 18.3906 20.2761C18.6407 20.5262 18.9798 20.6667 19.3334 20.6667Z" fill="white"/>
</svg>
