<svg width="32" height="32" viewBox="0 0 32 32" fill="none" xmlns="http://www.w3.org/2000/svg">
<path d="M25.3334 2.66666H6.66671C5.93033 2.66666 5.33337 3.26362 5.33337 4V28C5.33337 28.7364 5.93033 29.3333 6.66671 29.3333H25.3334C26.0698 29.3333 26.6667 28.7364 26.6667 28V4C26.6667 3.26362 26.0698 2.66666 25.3334 2.66666Z" stroke="white" stroke-width="2.66667" stroke-linecap="round" stroke-linejoin="round"/>
<path d="M16.0001 13.3333C17.841 13.3333 19.3334 11.8409 19.3334 10C19.3334 8.15905 17.841 6.66666 16.0001 6.66666C14.1591 6.66666 12.6667 8.15905 12.6667 10C12.6667 11.8409 14.1591 13.3333 16.0001 13.3333Z" fill="white" stroke="white" stroke-width="2.66667"/>
<path d="M9.33333 7.99999C10.0697 7.99999 10.6667 7.40304 10.6667 6.66666C10.6667 5.93028 10.0697 5.33333 9.33333 5.33333C8.59695 5.33333 8 5.93028 8 6.66666C8 7.40304 8.59695 7.99999 9.33333 7.99999Z" fill="white"/>
<path d="M9.33333 26.6667C10.0697 26.6667 10.6667 26.0697 10.6667 25.3333C10.6667 24.597 10.0697 24 9.33333 24C8.59695 24 8 24.597 8 25.3333C8 26.0697 8.59695 26.6667 9.33333 26.6667Z" fill="white"/>
<path d="M22.6667 7.99999C23.4031 7.99999 24 7.40304 24 6.66666C24 5.93028 23.4031 5.33333 22.6667 5.33333C21.9303 5.33333 21.3334 5.93028 21.3334 6.66666C21.3334 7.40304 21.9303 7.99999 22.6667 7.99999Z" fill="white"/>
<path d="M22.6667 26.6667C23.4031 26.6667 24 26.0697 24 25.3333C24 24.597 23.4031 24 22.6667 24C21.9303 24 21.3334 24.597 21.3334 25.3333C21.3334 26.0697 21.9303 26.6667 22.6667 26.6667Z" fill="white"/>
<path d="M16 25.3333C18.2091 25.3333 20 23.5425 20 21.3333C20 19.1242 18.2091 17.3333 16 17.3333C13.7909 17.3333 12 19.1242 12 21.3333C12 23.5425 13.7909 25.3333 16 25.3333Z" fill="white" stroke="white" stroke-width="2.66667"/>
</svg>
