<svg width="25" height="25" viewBox="0 0 25 25" fill="none" xmlns="http://www.w3.org/2000/svg">
<path d="M12.4999 2.08333C18.253 2.08333 22.9166 6.74687 22.9166 12.5C22.9166 18.2531 18.253 22.9167 12.4999 22.9167C6.74679 22.9167 2.08325 18.2531 2.08325 12.5C2.08325 6.74687 6.74679 2.08333 12.4999 2.08333ZM12.4999 16.6667C12.2237 16.6667 11.9587 16.7764 11.7633 16.9718C11.568 17.1671 11.4583 17.4321 11.4583 17.7083C11.4583 17.9846 11.568 18.2496 11.7633 18.4449C11.9587 18.6403 12.2237 18.75 12.4999 18.75C12.7762 18.75 13.0411 18.6403 13.2365 18.4449C13.4318 18.2496 13.5416 17.9846 13.5416 17.7083C13.5416 17.4321 13.4318 17.1671 13.2365 16.9718C13.0411 16.7764 12.7762 16.6667 12.4999 16.6667ZM12.4999 6.77083C11.4984 6.77083 10.538 7.16866 9.82985 7.87681C9.12171 8.58495 8.72388 9.5454 8.72388 10.5469C8.72388 10.8231 8.83362 11.0881 9.02897 11.2834C9.22432 11.4788 9.48928 11.5885 9.76554 11.5885C10.0418 11.5885 10.3068 11.4788 10.5021 11.2834C10.6975 11.0881 10.8072 10.8231 10.8072 10.5469C10.8076 10.2396 10.8915 9.93825 11.0501 9.67509C11.2087 9.41193 11.4359 9.19689 11.7074 9.05304C11.9789 8.90919 12.2845 8.84195 12.5913 8.85853C12.8981 8.87511 13.1946 8.97489 13.449 9.14716C13.7034 9.31943 13.9061 9.5577 14.0354 9.83642C14.1647 10.1151 14.2157 10.4238 14.183 10.7293C14.1502 11.0348 14.0349 11.3256 13.8494 11.5706C13.6639 11.8155 13.4153 12.0054 13.1301 12.1198C12.426 12.401 11.4583 13.1219 11.4583 14.3229V14.5833C11.4583 14.8596 11.568 15.1246 11.7633 15.3199C11.9587 15.5153 12.2237 15.625 12.4999 15.625C12.7762 15.625 13.0411 15.5153 13.2365 15.3199C13.4318 15.1246 13.5416 14.8596 13.5416 14.5833C13.5416 14.3292 13.5937 14.2021 13.8135 14.0937L13.9041 14.0521C14.7174 13.7249 15.3916 13.125 15.8111 12.3551C16.2306 11.5853 16.3692 10.6935 16.2032 9.83269C16.0372 8.97186 15.5769 8.19558 14.9012 7.63695C14.2256 7.07831 13.3766 6.77211 12.4999 6.77083Z" fill="white"/>
</svg>
