<svg width="21" height="21" viewBox="0 0 21 21" fill="none" xmlns="http://www.w3.org/2000/svg">
<path d="M6.25 20.8333C5.67708 20.8333 5.18681 20.6295 4.77917 20.2219C4.37153 19.8142 4.16736 19.3236 4.16667 18.75C4.16597 18.1764 4.37014 17.6861 4.77917 17.2792C5.18819 16.8722 5.67847 16.6681 6.25 16.6667C6.82153 16.6653 7.31215 16.8694 7.72187 17.2792C8.1316 17.6889 8.33542 18.1792 8.33333 18.75C8.33125 19.3208 8.12743 19.8115 7.72187 20.2219C7.31632 20.6323 6.82569 20.8361 6.25 20.8333ZM16.6667 20.8333C16.0938 20.8333 15.6035 20.6295 15.1958 20.2219C14.7882 19.8142 14.584 19.3236 14.5833 18.75C14.5826 18.1764 14.7868 17.6861 15.1958 17.2792C15.6049 16.8722 16.0951 16.6681 16.6667 16.6667C17.2382 16.6653 17.7288 16.8694 18.1385 17.2792C18.5483 17.6889 18.7521 18.1792 18.75 18.75C18.7479 19.3208 18.5441 19.8115 18.1385 20.2219C17.733 20.6323 17.2424 20.8361 16.6667 20.8333ZM4.375 2.08333H19.7396C20.1389 2.08333 20.4427 2.26146 20.651 2.61771C20.8594 2.97396 20.8681 3.33403 20.6771 3.69792L16.9792 10.3646C16.7882 10.7118 16.5323 10.9809 16.2115 11.1719C15.8906 11.3628 15.5389 11.4583 15.1562 11.4583H7.39583L6.25 13.5417H18.75V15.625H6.25C5.46875 15.625 4.87847 15.2823 4.47917 14.5969C4.07986 13.9115 4.0625 13.2299 4.42708 12.5521L5.83333 10L2.08333 2.08333H0V0H3.38542L4.375 2.08333Z" fill="white"/>
</svg>
