<svg width="22" height="22" viewBox="0 0 22 22" fill="none" xmlns="http://www.w3.org/2000/svg">
<path d="M3.66659 3.66669C3.18036 3.66669 2.71404 3.85984 2.37022 4.20366C2.02641 4.54747 1.83325 5.01379 1.83325 5.50002V9.16669C2.31948 9.16669 2.7858 9.35984 3.12961 9.70366C3.47343 10.0475 3.66659 10.5138 3.66659 11C3.66659 11.4863 3.47343 11.9526 3.12961 12.2964C2.7858 12.6402 2.31948 12.8334 1.83325 12.8334V16.5C1.83325 16.9862 2.02641 17.4526 2.37022 17.7964C2.71404 18.1402 3.18036 18.3334 3.66659 18.3334H18.3333C18.8195 18.3334 19.2858 18.1402 19.6296 17.7964C19.9734 17.4526 20.1666 16.9862 20.1666 16.5V12.8334C19.6804 12.8334 19.214 12.6402 18.8702 12.2964C18.5264 11.9526 18.3333 11.4863 18.3333 11C18.3333 10.5138 18.5264 10.0475 18.8702 9.70366C19.214 9.35984 19.6804 9.16669 20.1666 9.16669V5.50002C20.1666 5.01379 19.9734 4.54747 19.6296 4.20366C19.2858 3.85984 18.8195 3.66669 18.3333 3.66669H3.66659ZM14.2083 6.41669L15.5833 7.79169L7.79159 15.5834L6.41659 14.2084L14.2083 6.41669ZM8.07575 6.45335C8.97409 6.45335 9.69825 7.17752 9.69825 8.07585C9.69825 8.50617 9.52731 8.91886 9.22303 9.22313C8.91876 9.52741 8.50607 9.69835 8.07575 9.69835C7.17742 9.69835 6.45325 8.97419 6.45325 8.07585C6.45325 7.64554 6.62419 7.23285 6.92847 6.92857C7.23275 6.6243 7.64544 6.45335 8.07575 6.45335ZM13.9241 12.3017C14.8224 12.3017 15.5466 13.0259 15.5466 13.9242C15.5466 14.3545 15.3756 14.7672 15.0714 15.0715C14.7671 15.3757 14.3544 15.5467 13.9241 15.5467C13.0258 15.5467 12.3016 14.8225 12.3016 13.9242C12.3016 13.4939 12.4725 13.0812 12.7768 12.7769C13.0811 12.4726 13.4938 12.3017 13.9241 12.3017Z" fill="#F24822"/>
</svg>
