<svg width="22" height="22" viewBox="0 0 22 22" fill="none" xmlns="http://www.w3.org/2000/svg">
<path d="M16.5 2.75C17.2293 2.75 17.9288 3.03973 18.4445 3.55546C18.9603 4.07118 19.25 4.77065 19.25 5.5V16.5C19.25 17.2293 18.9603 17.9288 18.4445 18.4445C17.9288 18.9603 17.2293 19.25 16.5 19.25H5.5C4.77065 19.25 4.07118 18.9603 3.55546 18.4445C3.03973 17.9288 2.75 17.2293 2.75 16.5V5.5C2.75 4.77065 3.03973 4.07118 3.55546 3.55546C4.07118 3.03973 4.77065 2.75 5.5 2.75H16.5ZM11 5.5C9.09333 5.5 7.59367 5.91067 6.75767 6.20583C5.88958 6.51383 5.49542 7.40025 5.65492 8.19958L6.31675 11.5088C6.49642 12.4043 7.44608 12.8379 8.2225 12.5281C8.81375 12.2916 9.77992 11.9744 10.7415 11.9231L11.0165 11.9167C12.056 11.9203 13.1368 12.2723 13.7775 12.5281C14.5539 12.8379 15.5036 12.4043 15.6832 11.5078L16.3451 8.19958C16.5046 7.40025 16.1104 6.51383 15.2423 6.20675C13.878 5.7342 12.4438 5.49527 11 5.5ZM11 7.33333C12.4703 7.33333 13.6556 7.61658 14.3853 7.85217L14.5347 7.90167L13.9847 10.6489C13.5665 10.501 13.1398 10.3786 12.7068 10.2823L12.4135 10.2227L12.7362 9.57642C12.84 9.3674 12.8601 9.12666 12.7926 8.90329C12.725 8.67992 12.5748 8.49072 12.3725 8.37428C12.1703 8.25785 11.9312 8.22293 11.7041 8.27666C11.477 8.33038 11.279 8.4687 11.1503 8.66342L11.0972 8.75692L10.4207 10.1081C9.60483 10.1768 8.83392 10.3767 8.23167 10.5747L8.01442 10.648L7.46442 7.90167C8.60438 7.52197 9.79847 7.33003 11 7.33333Z" fill="#F24822"/>
</svg>
