<svg width="22" height="22" viewBox="0 0 22 22" fill="none" xmlns="http://www.w3.org/2000/svg">
<path d="M4.58325 8.24998C4.58325 6.54817 5.25929 4.91607 6.46265 3.71271C7.66601 2.50935 9.29811 1.83331 10.9999 1.83331C12.7017 1.83331 14.3338 2.50935 15.5372 3.71271C16.7405 4.91607 17.4166 6.54817 17.4166 8.24998V9.19873C18.9713 9.42148 20.1666 10.7589 20.1666 12.375V12.6041C20.1666 14.2312 18.7632 15.6576 17.1123 15.5815C16.4339 17.5248 14.7088 18.8347 12.847 19.1666C12.4162 19.3242 11.9065 19.25 11.4583 19.25C11.0936 19.25 10.7438 19.1051 10.486 18.8473C10.2281 18.5894 10.0833 18.2397 10.0833 17.875C10.0833 17.5103 10.2281 17.1606 10.486 16.9027C10.7438 16.6448 11.0936 16.5 11.4583 16.5C12.1852 16.5 12.99 16.3946 13.4813 17.0582C14.6693 16.4926 15.5833 15.2982 15.5833 13.75V8.24998C15.5833 7.0344 15.1004 5.86862 14.2408 5.00907C13.3813 4.14953 12.2155 3.66665 10.9999 3.66665C9.78434 3.66665 8.61855 4.14953 7.75901 5.00907C6.89947 5.86862 6.41659 7.0344 6.41659 8.24998V13.9791C6.41659 14.4046 6.24758 14.8126 5.94674 15.1135C5.6459 15.4143 5.23787 15.5833 4.81242 15.5833C4.02229 15.5833 3.26453 15.2694 2.70583 14.7107C2.14713 14.152 1.83325 13.3943 1.83325 12.6041V12.375C1.83305 11.6033 2.11096 10.8575 2.61604 10.2741C3.12112 9.69075 3.81953 9.30896 4.58325 9.19873V8.24998Z" fill="#F24822"/>
</svg>
