<svg width="22" height="22" viewBox="0 0 22 22" fill="none" xmlns="http://www.w3.org/2000/svg">
<path d="M17.0959 2.61251L17.6551 6.15084L20.8726 7.79167L19.2501 11L20.8817 14.2083L17.6367 15.8492L17.0776 19.3875L13.5117 18.8283L10.9726 21.3583L8.42424 18.7917L4.88591 19.3783L4.31758 15.8125L1.11841 14.1808L2.75007 10.9725L1.12757 7.79167L4.34507 6.13251L4.90424 2.62167L8.45174 3.20834L11.0001 0.632507L13.5392 3.17167L17.0959 2.61251ZM8.70841 6.41667C8.34374 6.41667 7.994 6.56154 7.73614 6.8194C7.47827 7.07726 7.33341 7.427 7.33341 7.79167C7.33341 8.15635 7.47827 8.50608 7.73614 8.76395C7.994 9.02181 8.34374 9.16667 8.70841 9.16667C9.07308 9.16667 9.42282 9.02181 9.68068 8.76395C9.93854 8.50608 10.0834 8.15635 10.0834 7.79167C10.0834 7.427 9.93854 7.07726 9.68068 6.8194C9.42282 6.56154 9.07308 6.41667 8.70841 6.41667ZM13.2917 12.8333C12.9271 12.8333 12.5773 12.9782 12.3195 13.2361C12.0616 13.4939 11.9167 13.8437 11.9167 14.2083C11.9167 14.573 12.0616 14.9227 12.3195 15.1806C12.5773 15.4385 12.9271 15.5833 13.2917 15.5833C13.6564 15.5833 14.0062 15.4385 14.264 15.1806C14.5219 14.9227 14.6667 14.573 14.6667 14.2083C14.6667 13.8437 14.5219 13.4939 14.264 13.2361C14.0062 12.9782 13.6564 12.8333 13.2917 12.8333ZM7.70924 15.5833L15.5834 7.70917L14.2909 6.41667L6.41674 14.2908L7.70924 15.5833Z" fill="#F24822"/>
</svg>
