<svg width="67" height="54" viewBox="0 0 67 54" fill="none" xmlns="http://www.w3.org/2000/svg">
<mask id="mask0_62_3" style="mask-type:luminance" maskUnits="userSpaceOnUse" x="0" y="0" width="67" height="54">
<path d="M40.0008 0H26.6675C14.0975 0 7.81083 -3.97364e-07 3.9075 3.90667C1.09417 6.71667 0.3075 10.7633 0.0875 17.5H66.5808C66.3608 10.7633 65.5742 6.71667 62.7608 3.90667C58.8575 -3.97364e-07 52.5708 0 40.0008 0ZM26.6675 53.3333H40.0008C52.5708 53.3333 58.8575 53.3333 62.7608 49.4267C66.6642 45.52 66.6675 39.2367 66.6675 26.6667C66.6675 25.1956 66.6653 23.8067 66.6608 22.5H0.00750026C0.000833596 23.8067 -0.00138894 25.1956 0.000833285 26.6667C0.000833285 39.2367 0.000832876 45.5233 3.9075 49.4267C7.81417 53.33 14.0975 53.3333 26.6675 53.3333Z" fill="white"/>
<path fill-rule="evenodd" clip-rule="evenodd" d="M10.8341 40C10.8341 39.337 11.0975 38.7011 11.5663 38.2322C12.0352 37.7634 12.6711 37.5 13.3341 37.5H26.6674C27.3305 37.5 27.9664 37.7634 28.4352 38.2322C28.904 38.7011 29.1674 39.337 29.1674 40C29.1674 40.663 28.904 41.2989 28.4352 41.7678C27.9664 42.2366 27.3305 42.5 26.6674 42.5H13.3341C12.6711 42.5 12.0352 42.2366 11.5663 41.7678C11.0975 41.2989 10.8341 40.663 10.8341 40ZM32.5008 40C32.5008 39.337 32.7642 38.7011 33.233 38.2322C33.7019 37.7634 34.3377 37.5 35.0008 37.5H40.0008C40.6638 37.5 41.2997 37.7634 41.7685 38.2322C42.2374 38.7011 42.5008 39.337 42.5008 40C42.5008 40.663 42.2374 41.2989 41.7685 41.7678C41.2997 42.2366 40.6638 42.5 40.0008 42.5H35.0008C34.3377 42.5 33.7019 42.2366 33.233 41.7678C32.7642 41.2989 32.5008 40.663 32.5008 40Z" fill="black"/>
</mask>
<g mask="url(#mask0_62_3)">
<path d="M-6.66577 -13.3333H73.3342V66.6667H-6.66577V-13.3333Z" fill="#F24822"/>
</g>
</svg>
