<svg width="67" height="67" viewBox="0 0 67 67" fill="none" xmlns="http://www.w3.org/2000/svg">
<path fill-rule="evenodd" clip-rule="evenodd" d="M25.8879 3.32935C26.8258 2.28183 27.9741 1.44388 29.2578 0.870202C30.5415 0.296519 31.9318 0 33.3379 0C34.744 0 36.1342 0.296519 37.4179 0.870202C38.7016 1.44388 39.8499 2.28183 40.7879 3.32935L43.1212 5.93602C43.4547 6.30904 43.8678 6.60221 44.33 6.79379C44.7922 6.98537 45.2916 7.07044 45.7912 7.04269L49.2912 6.84935C50.6947 6.77227 52.0987 6.99194 53.4116 7.49402C54.7245 7.9961 55.9167 8.76932 56.9107 9.76324C57.9046 10.7572 58.6778 11.9494 59.1799 13.2623C59.682 14.5752 59.9016 15.9792 59.8245 17.3827L59.6312 20.8827C59.604 21.3817 59.6893 21.8805 59.8809 22.3421C60.0724 22.8036 60.3653 23.2163 60.7379 23.5494L63.3479 25.8827C64.396 26.8206 65.2344 27.9691 65.8084 29.2532C66.3824 30.5372 66.6791 31.9279 66.6791 33.3344C66.6791 34.7408 66.3824 36.1315 65.8084 37.4155C65.2344 38.6996 64.396 39.8481 63.3479 40.786L60.7379 43.1194C60.3649 43.4528 60.0717 43.866 59.8801 44.3282C59.6885 44.7904 59.6035 45.2898 59.6312 45.7894L59.8245 49.2894C59.9016 50.6928 59.682 52.0968 59.1799 53.4097C58.6778 54.7226 57.9046 55.9149 56.9107 56.9088C55.9167 57.9027 54.7245 58.6759 53.4116 59.178C52.0987 59.6801 50.6947 59.8998 49.2912 59.8227L45.7912 59.6294C45.2922 59.6021 44.7934 59.6874 44.3318 59.879C43.8703 60.0705 43.4576 60.3634 43.1245 60.736L40.7912 63.346C39.8533 64.3941 38.7048 65.2325 37.4207 65.8065C36.1367 66.3805 34.746 66.6772 33.3396 66.6772C31.9331 66.6772 30.5424 66.3805 29.2584 65.8065C27.9743 65.2325 26.8258 64.3941 25.8879 63.346L23.5545 60.736C23.2211 60.363 22.8079 60.0698 22.3457 59.8783C21.8835 59.6867 21.3841 59.6016 20.8846 59.6294L17.3846 59.8227C15.9811 59.8998 14.5771 59.6801 13.2642 59.178C11.9513 58.6759 10.759 57.9027 9.7651 56.9088C8.77118 55.9149 7.99796 54.7226 7.49588 53.4097C6.9938 52.0968 6.77414 50.6928 6.85122 49.2894L7.04455 45.7894C7.07179 45.2903 6.98647 44.7916 6.79491 44.33C6.60335 43.8684 6.31045 43.4558 5.93788 43.1227L3.33122 40.7894C2.28315 39.8514 1.44473 38.7029 0.870711 37.4189C0.296696 36.1348 0 34.7442 0 33.3377C0 31.9312 0.296696 30.5405 0.870711 29.2565C1.44473 27.9725 2.28315 26.824 3.33122 25.886L5.93788 23.5527C6.31091 23.2192 6.60408 22.8061 6.79565 22.3439C6.98723 21.8817 7.0723 21.3823 7.04455 20.8827L6.85122 17.3827C6.77414 15.9792 6.9938 14.5752 7.49588 13.2623C7.99796 11.9494 8.77118 10.7572 9.7651 9.76324C10.759 8.76932 11.9513 7.9961 13.2642 7.49402C14.5771 6.99194 15.9811 6.77227 17.3846 6.84935L20.8846 7.04269C21.3836 7.06993 21.8823 6.98461 22.3439 6.79305C22.8055 6.60149 23.2181 6.30859 23.5512 5.93602L25.8879 3.32935ZM45.6945 20.9794C46.3195 21.6044 46.6705 22.4521 46.6705 23.336C46.6705 24.2199 46.3195 25.0676 45.6945 25.6927L25.6945 45.6927C25.0659 46.2999 24.2239 46.6359 23.3499 46.6283C22.4759 46.6207 21.6398 46.2701 21.0218 45.6521C20.4038 45.0341 20.0532 44.198 20.0456 43.324C20.038 42.45 20.374 41.608 20.9812 40.9794L40.9812 20.9794C41.6063 20.3545 42.454 20.0034 43.3379 20.0034C44.2218 20.0034 45.0695 20.3545 45.6945 20.9794ZM25.0046 20.0027C23.6785 20.0027 22.4067 20.5295 21.469 21.4672C20.5313 22.4048 20.0046 23.6766 20.0046 25.0027V25.036C20.0046 26.3621 20.5313 27.6339 21.469 28.5716C22.4067 29.5092 23.6785 30.036 25.0046 30.036H25.0379C26.364 30.036 27.6357 29.5092 28.5734 28.5716C29.5111 27.6339 30.0379 26.3621 30.0379 25.036V25.0027C30.0379 23.6766 29.5111 22.4048 28.5734 21.4672C27.6357 20.5295 26.364 20.0027 25.0379 20.0027H25.0046ZM41.6712 36.6694C40.3451 36.6694 39.0734 37.1961 38.1357 38.1338C37.198 39.0715 36.6712 40.3433 36.6712 41.6694V41.7027C36.6712 43.0288 37.198 44.3005 38.1357 45.2382C39.0734 46.1759 40.3451 46.7027 41.6712 46.7027H41.7046C43.0306 46.7027 44.3024 46.1759 45.2401 45.2382C46.1778 44.3005 46.7046 43.0288 46.7046 41.7027V41.6694C46.7046 40.3433 46.1778 39.0715 45.2401 38.1338C44.3024 37.1961 43.0306 36.6694 41.7046 36.6694H41.6712Z" fill="#F24822"/>
</svg>
