<svg width="67" height="67" viewBox="0 0 67 67" fill="none" xmlns="http://www.w3.org/2000/svg">
<path fill-rule="evenodd" clip-rule="evenodd" d="M47.1229 9.09415L53.2229 15.1942C62.1862 24.1608 66.6662 28.6408 66.6662 34.2075C66.6662 39.7775 62.1862 44.2575 53.2229 53.2208C44.2562 62.1875 39.7762 66.6675 34.2062 66.6675C28.6396 66.6675 24.1562 62.1875 15.1929 53.2241L9.09289 47.1241C3.94289 41.9708 1.36622 39.3975 0.409554 36.0542C-0.550446 32.7108 0.269554 29.1608 1.90955 22.0642L2.85289 17.9708C4.22955 11.9975 4.91955 9.01082 6.96289 6.96415C9.00622 4.91749 11.9962 4.23082 17.9696 2.85415L22.0629 1.90748C29.1629 0.270818 32.7096 -0.549182 36.0529 0.407485C39.3962 1.36748 41.9729 3.94415 47.1229 9.09415ZM30.4862 41.0942C28.2429 38.8542 28.2596 35.6342 29.6029 33.0842C29.2703 32.6038 29.1165 32.0221 29.1681 31.4402C29.2198 30.8582 29.4736 30.3127 29.8855 29.8984C30.2974 29.4841 30.8415 29.2272 31.4231 29.1722C32.0048 29.1172 32.5873 29.2677 33.0696 29.5975C34.2029 28.9975 35.4462 28.6775 36.6862 28.6908C37.3493 28.697 37.9827 28.9663 38.4472 29.4395C38.9116 29.9128 39.1691 30.5511 39.1629 31.2142C39.1567 31.8772 38.8874 32.5106 38.4142 32.9751C37.9409 33.4395 37.3026 33.697 36.6396 33.6908C35.8677 33.7193 35.1383 34.0511 34.6096 34.6142C33.3196 35.9042 33.6562 37.1975 34.0196 37.5608C34.3862 37.9242 35.6762 38.2608 36.9662 36.9708C39.5796 34.3575 44.0929 33.4908 46.9829 36.3808C49.2262 38.6241 49.2096 41.8442 47.8662 44.3942C48.1967 44.8746 48.3488 45.4555 48.2962 46.0362C48.2437 46.617 47.9898 47.1611 47.5784 47.5744C47.1671 47.9878 46.6242 48.2443 46.0437 48.2996C45.4632 48.355 44.8816 48.2056 44.3996 47.8775C42.9038 48.6982 41.1686 48.9717 39.4929 48.6508C38.8431 48.5173 38.273 48.1312 37.9079 47.5773C37.5428 47.0235 37.4127 46.3473 37.5462 45.6975C37.6797 45.0477 38.0659 44.4776 38.6197 44.1125C39.1736 43.7474 39.8498 43.6173 40.4996 43.7508C41.0896 43.8742 42.0429 43.6808 42.8596 42.8642C44.1496 41.5708 43.8129 40.2808 43.4496 39.9175C43.0829 39.5542 41.7929 39.2175 40.5029 40.5075C37.8896 43.1208 33.3762 43.9875 30.4862 41.0942ZM26.7329 27.6442C27.3519 27.025 27.8428 26.2899 28.1777 25.481C28.5126 24.6721 28.6849 23.8051 28.6847 22.9296C28.6846 22.0541 28.512 21.1872 28.1768 20.3784C27.8416 19.5696 27.3504 18.8348 26.7312 18.2158C26.112 17.5969 25.377 17.1059 24.5681 16.771C23.7592 16.4361 22.8922 16.2638 22.0167 16.264C21.1412 16.2641 20.2743 16.4367 19.4655 16.7719C18.6567 17.1071 17.9219 17.5983 17.3029 18.2175C16.0528 19.468 15.3507 21.1638 15.351 22.932C15.3514 24.7002 16.0541 26.3958 17.3046 27.6458C18.555 28.8959 20.2509 29.598 22.0191 29.5977C23.7872 29.5973 25.4828 28.8946 26.7329 27.6442Z" fill="#F24822"/>
</svg>
