<svg width="68" height="71" viewBox="0 0 68 71" fill="none" xmlns="http://www.w3.org/2000/svg">
<path d="M43.3333 0H3.33333C2.44928 0 1.60143 0.351189 0.97631 0.976311C0.351189 1.60143 0 2.44928 0 3.33333V63.3333C0 64.2174 0.351189 65.0652 0.97631 65.6904C1.60143 66.3155 2.44928 66.6667 3.33333 66.6667H30.85C27.9077 62.4449 26.4435 57.3689 26.6852 52.2287C26.927 47.0885 28.8613 42.1724 32.1869 38.2455C35.5126 34.3186 40.0431 31.6012 45.0733 30.5163C50.1036 29.4313 55.3514 30.0397 60 32.2467V16.6667L43.3333 0ZM35.9533 44.4233C36.0833 42 37.9533 40.0267 40.3667 39.77L43.2667 39.4633C43.6122 39.4259 43.9373 39.2814 44.1967 39.05L46.3667 37.1C47.24 36.313 48.3657 35.8638 49.5409 35.8332C50.7161 35.8027 51.8636 36.1928 52.7767 36.9333L55.05 38.7667C55.3167 38.9833 55.65 39.11 55.9967 39.13L58.91 39.2867C61.3333 39.4167 63.3067 41.2867 63.5633 43.7L63.87 46.6C63.9074 46.9455 64.052 47.2707 64.2833 47.53L66.2333 49.7C67.8567 51.5067 67.9267 54.2233 66.4 56.11L64.5667 58.3833C64.3502 58.6535 64.2232 58.9844 64.2033 59.33L64.0467 62.2433C63.9863 63.4177 63.5085 64.5318 62.6993 65.385C61.8901 66.2382 60.8028 66.7743 59.6333 66.8967L56.7333 67.2033C56.3878 67.2408 56.0626 67.3853 55.8033 67.6167L53.6333 69.5667C52.76 70.3536 51.6343 70.8029 50.4591 70.8334C49.2839 70.864 48.1364 70.4739 47.2233 69.7333L44.95 67.9C44.6798 67.6835 44.349 67.5565 44.0033 67.5367L41.09 67.38C39.9157 67.3196 38.8015 66.8418 37.9483 66.0326C37.0952 65.2235 36.5591 64.1362 36.4367 62.9667L36.13 60.0667C36.0925 59.7212 35.948 59.396 35.7167 59.1367L33.7667 56.9667C32.9797 56.0933 32.5305 54.9677 32.4999 53.7924C32.4693 52.6172 32.8595 51.4697 33.6 50.5567L35.4333 48.2833C35.6498 48.0132 35.7768 47.6823 35.7967 47.3367L35.9533 44.4233ZM60.1 50.1L56.5667 46.5667L48.3333 54.8L43.4333 49.9L39.9 53.4333L46.5667 60.1L48.3333 61.8667L50.1 60.1L60.1 50.1Z" fill="#F24822"/>
</svg>
